<svg width="140" height="151" viewBox="0 0 140 151" fill="none" xmlns="http://www.w3.org/2000/svg">
<circle cx="70" cy="70" r="69.5" fill="white" stroke="black"/>
<path d="M97.8333 90.7501H41.1666V55.3334H97.8333V90.7501ZM97.8333 48.2501H69.4999L62.4166 41.1667H41.1666C37.2353 41.1667 34.0833 44.3188 34.0833 48.2501V90.7501C34.0833 94.6459 37.2708 97.8334 41.1666 97.8334H97.8333C101.729 97.8334 104.917 94.6459 104.917 90.7501V55.3334C104.917 53.4548 104.17 51.6531 102.842 50.3247C101.514 48.9964 99.7119 48.2501 97.8333 48.2501ZM75.9812 69.5001C74.5291 65.3917 70.5978 62.4167 65.9583 62.4167C60.0791 62.4167 55.3333 67.1626 55.3333 73.0417C55.3333 78.9209 60.0791 83.6667 65.9583 83.6667C70.5978 83.6667 74.5291 80.7272 75.9812 76.5834H83.6666V83.6667H90.7499V76.5834H94.2916V69.5001H75.9812ZM65.9583 76.5834C64.0103 76.5834 62.4166 75.0251 62.4166 73.0417C62.4166 71.0938 64.0103 69.5001 65.9583 69.5001C67.9062 69.5001 69.4999 71.0938 69.4999 73.0417C69.4999 74.9897 67.9062 76.5834 65.9583 76.5834Z" fill="black"/>
<circle cx="69.5" cy="138.5" r="12" fill="white" stroke="black"/>
<path d="M66.377 138.424L67.159 132.1H72.786V134.055H68.876L68.536 136.418C68.7627 136.373 68.9893 136.35 69.216 136.35C70.304 136.35 71.1937 136.696 71.885 137.387C72.599 138.078 72.956 138.996 72.956 140.141C72.956 141.376 72.565 142.362 71.783 143.099C71.0123 143.824 70.0377 144.187 68.859 144.187C68.213 144.187 67.55 144.04 66.87 143.745C66.2353 143.45 65.7367 143.031 65.374 142.487L66.496 141.008C66.734 141.371 67.0797 141.665 67.533 141.892C67.9977 142.119 68.4567 142.232 68.91 142.232C69.4767 142.232 69.9413 142.045 70.304 141.671C70.678 141.297 70.865 140.815 70.865 140.226C70.865 139.603 70.6327 139.098 70.168 138.713C69.7147 138.316 69.1027 138.118 68.332 138.118C67.5047 138.118 66.853 138.22 66.377 138.424Z" fill="#EB3F57"/>
</svg>
