<svg width="140" height="152" viewBox="0 0 140 152" fill="none" xmlns="http://www.w3.org/2000/svg">
<circle cx="70" cy="70" r="69.5" fill="white" stroke="black"/>
<path d="M99.1667 78.3334V45.0001C99.1667 40.4167 95.4167 36.6667 90.8334 36.6667H32.5001C27.9167 36.6667 24.1667 40.4167 24.1667 45.0001V78.3334C24.1667 82.9168 27.9167 86.6668 32.5001 86.6668H90.8334C95.4167 86.6668 99.1667 82.9168 99.1667 78.3334ZM90.8334 78.3334H32.5001V45.0001H90.8334V78.3334ZM61.6667 49.1667C54.7501 49.1667 49.1667 54.7501 49.1667 61.6667C49.1667 68.5834 54.7501 74.1668 61.6667 74.1668C68.5834 74.1668 74.1667 68.5834 74.1667 61.6667C74.1667 54.7501 68.5834 49.1667 61.6667 49.1667ZM115.833 49.1667V95.0001C115.833 99.5834 112.083 103.333 107.5 103.333H36.6667V95.0001H107.5V49.1667H115.833Z" fill="black"/>
<circle cx="69.5" cy="138.5" r="12" fill="white" stroke="black"/>
<path d="M64.81 140.536C64.81 139.456 64.996 138.424 65.368 137.44C65.74 136.444 66.244 135.592 66.88 134.884C68.128 133.48 69.502 132.586 71.002 132.202L71.848 133.768C70.744 134.104 69.778 134.674 68.95 135.478C68.134 136.282 67.57 137.248 67.258 138.376C67.822 137.596 68.686 137.206 69.85 137.206C70.834 137.206 71.668 137.566 72.352 138.286C73.036 139.006 73.378 139.93 73.378 141.058C73.378 142.318 72.97 143.326 72.154 144.082C71.338 144.826 70.39 145.198 69.31 145.198C67.93 145.198 66.838 144.748 66.034 143.848C65.218 142.936 64.81 141.832 64.81 140.536ZM67.006 140.554C67.006 141.31 67.21 141.928 67.618 142.408C68.038 142.888 68.608 143.128 69.328 143.128C69.868 143.128 70.312 142.942 70.66 142.57C71.008 142.198 71.182 141.742 71.182 141.202C71.182 140.59 71.002 140.092 70.642 139.708C70.282 139.324 69.784 139.132 69.148 139.132C68.176 139.132 67.462 139.606 67.006 140.554Z" fill="#EB3F57"/>
</svg>
