<svg width="140" height="152" viewBox="0 0 140 152" fill="none" xmlns="http://www.w3.org/2000/svg">
<circle cx="70" cy="70" r="69.5" fill="white" stroke="black"/>
<path d="M40.3237 56.2823C44.2889 53.201 47.5784 55.326 51.9687 60.409C52.4617 60.9828 53.1247 60.3113 53.5029 59.984C53.8769 59.6525 59.6697 54.4378 59.9544 54.1998C60.2349 53.949 60.5749 53.4815 60.1287 52.9588C59.0537 51.6292 58.001 50.2817 56.9709 48.917C49.2869 38.8658 77.9914 32.0488 73.5842 31.9425C71.3402 31.883 62.3387 31.7768 60.9914 31.9255C55.5387 32.4993 48.6919 37.595 45.2452 39.9708C40.7359 43.0563 39.0529 44.8668 38.7767 45.1175C37.5017 46.231 38.5727 48.8023 36.2607 50.8295C33.8169 52.9673 32.2912 51.348 30.8759 52.589C30.1747 53.2095 28.2112 54.68 27.6502 55.1688C27.0849 55.666 26.9829 56.5033 27.5609 57.1705C27.5609 57.1705 32.9329 63.1035 33.3834 63.6305C33.8297 64.149 35.0452 64.5995 35.7932 63.9323C36.5454 63.2693 38.4792 61.582 38.8022 61.2845C39.1337 61.004 38.5897 57.6253 40.3237 56.2823ZM64.5827 58.4795C64.0727 57.8888 63.4394 57.8718 62.8954 58.3563L56.8009 63.6773C56.5656 63.8908 56.4222 64.1872 56.4008 64.5042C56.3794 64.8211 56.4817 65.1341 56.6862 65.3773L91.9357 105.493C92.7602 106.441 94.1882 106.539 95.1274 105.718L99.2499 102.263C99.7037 101.863 99.9814 101.301 100.023 100.698C100.064 100.095 99.8659 99.4994 99.4709 99.0415L64.5827 58.4795ZM111.583 41.4073C111.269 39.3078 110.181 39.7455 109.616 40.6338C109.05 41.5305 106.551 45.3173 105.523 47.0343C104.503 48.7343 101.987 52.096 97.3034 48.7768C92.4244 45.33 94.1202 42.9245 94.9702 41.3053C95.8244 39.6775 98.4467 35.113 98.8249 34.5478C99.2032 33.974 98.7612 32.308 97.2482 33.005C95.7309 33.702 86.5254 37.3613 85.2504 42.61C83.9457 47.948 86.3427 52.7208 81.6379 57.4595L75.9302 63.4095L81.6634 70.065L88.6929 63.3925C90.3674 61.7095 93.9459 60.0733 97.1844 60.8128C104.125 62.381 107.911 59.7758 110.194 55.4663C112.242 51.6158 111.902 43.5068 111.583 41.4073ZM38.6407 99.475C38.2155 99.9033 37.977 100.482 37.977 101.086C37.977 101.689 38.2155 102.268 38.6407 102.697L42.6824 106.649C43.5664 107.537 44.9689 107.163 45.8529 106.275L66.7077 85.773L60.3199 78.4885L38.6407 99.475Z" fill="black"/>
<circle cx="69.5" cy="138.5" r="12" fill="white" stroke="black"/>
<path d="M72.1 145H70.03V142.084H64.27V140.554L69.13 132.4H71.506L66.952 140.014H70.03V136.9H72.1V140.014H73.72V142.084H72.1V145Z" fill="#EB3F57"/>
</svg>
