<svg width="140" height="152" viewBox="0 0 140 152" fill="none" xmlns="http://www.w3.org/2000/svg">
<circle cx="70" cy="70" r="69.5" fill="white" stroke="black"/>
<path d="M97.8334 97.4082V104.917L91.4584 100.773L74.4938 68.8978C76.8313 68.1541 78.9563 66.9499 80.798 65.3562L97.8334 97.4082ZM80.1251 51.7916C80.1251 54.6095 79.0057 57.312 77.0131 59.3046C75.0205 61.2972 72.318 62.4166 69.5001 62.4166H67.9417L47.5417 100.773L41.1667 104.917V97.4082L61.673 58.8749C57.7772 54.5187 58.1313 47.7895 62.523 43.8583C64.4355 42.1583 66.9147 41.1666 69.5001 41.1666V34.0833C70.4394 34.0833 71.3402 34.4564 72.0044 35.1206C72.6686 35.7848 73.0417 36.6856 73.0417 37.6249V41.8041C77.2917 43.2916 80.1251 47.2937 80.1251 51.7916ZM73.0417 51.7916C73.0417 50.8523 72.6686 49.9514 72.0044 49.2872C71.3402 48.6231 70.4394 48.2499 69.5001 48.2499C68.5608 48.2499 67.6599 48.6231 66.9957 49.2872C66.3316 49.9514 65.9584 50.8523 65.9584 51.7916C65.9584 52.7309 66.3316 53.6317 66.9957 54.2959C67.6599 54.9601 68.5608 55.3333 69.5001 55.3333C70.4394 55.3333 71.3402 54.9601 72.0044 54.2959C72.6686 53.6317 73.0417 52.7309 73.0417 51.7916Z" fill="black"/>
<circle cx="69.5" cy="138.5" r="12" fill="white" stroke="black"/>
<path d="M69.392 145.198C68.468 145.198 67.652 145.012 66.944 144.64C66.248 144.256 65.732 143.734 65.396 143.074L66.566 141.562C67.274 142.606 68.174 143.128 69.266 143.128C69.902 143.128 70.4 142.966 70.76 142.642C71.12 142.318 71.3 141.898 71.3 141.382C71.3 140.806 71.09 140.368 70.67 140.068C70.262 139.756 69.692 139.6 68.96 139.6H68.06V137.53H68.87C69.422 137.53 69.884 137.368 70.256 137.044C70.628 136.72 70.814 136.306 70.814 135.802C70.814 135.322 70.676 134.95 70.4 134.686C70.124 134.41 69.728 134.272 69.212 134.272C68.24 134.272 67.448 134.722 66.836 135.622L65.684 134.164C66.38 132.856 67.622 132.202 69.41 132.202C70.502 132.202 71.378 132.496 72.038 133.084C72.698 133.66 73.028 134.434 73.028 135.406C73.028 136.834 72.386 137.83 71.102 138.394V138.448C71.858 138.58 72.446 138.922 72.866 139.474C73.298 140.014 73.514 140.674 73.514 141.454C73.514 142.594 73.124 143.506 72.344 144.19C71.564 144.862 70.58 145.198 69.392 145.198Z" fill="#EB3F57"/>
</svg>
