<svg width="140" height="152" viewBox="0 0 140 152" fill="none" xmlns="http://www.w3.org/2000/svg">
<circle cx="70" cy="70" r="69.5" fill="white" stroke="black"/>
<path d="M69.5 71.9131C69.2988 72.0327 68.1819 72.5309 66.1495 73.4077C64.1171 74.2845 62.9399 74.8425 62.6179 75.0816C64.1473 77.3534 65.6162 79.3063 67.0249 80.9403C66.6626 81.7374 66.1394 83.5907 65.4553 86.5001C64.7711 89.4095 64.0366 92.7573 63.2518 96.5436C62.467 100.33 62.0545 102.303 62.0142 102.462C61.974 102.342 61.5514 102.183 60.7464 101.984C59.9415 101.785 59.0863 101.416 58.1808 100.878C57.2752 100.34 56.6816 99.5925 56.3999 98.636C55.7559 96.4838 55.2126 93.2555 54.7699 88.9512C54.3272 84.6468 53.9851 80.8108 53.7436 77.443C53.5021 74.0753 53.2405 72.2121 52.9588 71.8534C52.6771 71.9729 52.0432 72.2918 51.0572 72.8099C50.0711 73.328 49.0549 73.7863 48.0085 74.1849C46.8011 74.6233 45.151 75.2211 43.0582 75.9784C40.9654 76.7356 39.3153 77.3434 38.108 77.8017C36.9006 78.2601 35.5624 78.8081 34.0934 79.4457C32.6244 80.0834 31.4371 80.7311 30.5316 81.3887C29.6261 82.0463 28.9318 82.7139 28.4489 83.3914C27.483 85.9421 27 96.145 27 114H112C112 109.536 111.889 103.717 111.668 96.5436C111.447 89.3697 111.074 84.9856 110.551 83.3914C110.068 82.7139 109.374 82.0463 108.468 81.3887C107.563 80.7311 106.376 80.0834 104.907 79.4457C103.438 78.8081 102.099 78.2601 100.892 77.8017C99.6847 77.3434 98.0346 76.7356 95.9418 75.9784C93.849 75.2211 92.1989 74.6233 90.9915 74.1849C89.9451 73.7863 88.9289 73.328 87.9428 72.8099C86.9568 72.2918 86.3229 71.9729 86.0412 71.8534C85.7595 72.2121 85.5281 74.0753 85.3469 77.443C85.1658 80.8108 84.8841 84.6468 84.5018 88.9512C84.1194 93.2555 83.6063 96.4838 82.9624 98.636C82.6806 99.5925 82.087 100.34 81.1815 100.878C80.2759 101.416 79.4207 101.785 78.6158 101.984C77.8108 102.183 77.3883 102.342 77.348 102.462C74.8527 90.386 73.0618 83.2121 71.9751 80.9403C73.3838 79.3063 74.8527 77.3534 76.3821 75.0816C76.0601 74.8425 74.8829 74.2845 72.8505 73.4077C70.8181 72.5309 69.7012 72.0327 69.5 71.9131ZM69.5 29.8262C74.8527 29.8262 79.4106 31.6894 83.1736 35.4158C86.9367 39.1423 88.8182 43.6559 88.8182 48.9566C88.8182 54.2573 86.9367 58.7709 83.1736 62.4974C79.4106 66.2238 74.8527 68.087 69.5 68.087C64.1473 68.087 59.5894 66.2238 55.8263 62.4974C52.0633 58.7709 50.1818 54.2573 50.1818 48.9566C50.1818 43.6559 52.0633 39.1423 55.8263 35.4158C59.5894 31.6894 64.1473 29.8262 69.5 29.8262ZM85.9205 49.0762C84.3508 49.395 82.1071 49.2456 79.1893 48.6278C76.2714 48.0101 73.8063 47.2827 71.794 46.4457C70.4257 45.8479 69.1177 45.1604 67.87 44.3832C66.6224 43.6061 65.1937 42.6296 63.5838 41.4539C61.974 40.2782 60.7263 39.4113 59.8409 38.8533C60.4848 43.5961 58.2311 46.9838 53.0795 49.0164C53.1198 53.52 54.7397 57.3461 57.9393 60.4947C61.1388 63.6432 64.9924 65.2175 69.5 65.2175C74.0076 65.2175 77.8611 63.6432 81.0607 60.4947C84.2603 57.3461 85.8802 53.5399 85.9205 49.0762Z" fill="black"/>
<rect x="27.5" y="26.5" width="84" height="87" stroke="white"/>
<circle cx="69.5" cy="138.5" r="12" fill="white" stroke="black"/>
<path d="M67.494 136.486L66.396 134.776L69.618 132.364H71.112V145H69.042V135.316L67.494 136.486Z" fill="#EB3F57"/>
</svg>
