<svg width="140" height="152" viewBox="0 0 140 152" fill="none" xmlns="http://www.w3.org/2000/svg">
<circle cx="70" cy="70" r="69.5" fill="white" stroke="black"/>
<path d="M46.6154 102.857C46.6154 101.043 45.9769 99.4944 44.6998 98.2109C43.4228 96.9275 41.8818 96.2857 40.0769 96.2857C38.272 96.2857 36.7311 96.9275 35.454 98.2109C34.177 99.4944 33.5385 101.043 33.5385 102.857C33.5385 104.671 34.177 106.22 35.454 107.503C36.7311 108.787 38.272 109.429 40.0769 109.429C41.8818 109.429 43.4228 108.787 44.6998 107.503C45.9769 106.22 46.6154 104.671 46.6154 102.857ZM66.2308 102.857C66.2308 101.043 65.5922 99.4944 64.3152 98.2109C63.0382 96.9275 61.4972 96.2857 59.6923 96.2857C57.8874 96.2857 56.3465 96.9275 55.0694 98.2109C53.7924 99.4944 53.1538 101.043 53.1538 102.857C53.1538 104.671 53.7924 106.22 55.0694 107.503C56.3465 108.787 57.8874 109.429 59.6923 109.429C61.4972 109.429 63.0382 108.787 64.3152 107.503C65.5922 106.22 66.2308 104.671 66.2308 102.857ZM46.6154 83.1429C46.6154 81.3289 45.9769 79.7801 44.6998 78.4967C43.4228 77.2132 41.8818 76.5714 40.0769 76.5714C38.272 76.5714 36.7311 77.2132 35.454 78.4967C34.177 79.7801 33.5385 81.3289 33.5385 83.1429C33.5385 84.9568 34.177 86.5056 35.454 87.7891C36.7311 89.0725 38.272 89.7143 40.0769 89.7143C41.8818 89.7143 43.4228 89.0725 44.6998 87.7891C45.9769 86.5056 46.6154 84.9568 46.6154 83.1429ZM85.8462 102.857C85.8462 101.043 85.2076 99.4944 83.9306 98.2109C82.6535 96.9275 81.1126 96.2857 79.3077 96.2857C77.5028 96.2857 75.9618 96.9275 74.6848 98.2109C73.4078 99.4944 72.7692 101.043 72.7692 102.857C72.7692 104.671 73.4078 106.22 74.6848 107.503C75.9618 108.787 77.5028 109.429 79.3077 109.429C81.1126 109.429 82.6535 108.787 83.9306 107.503C85.2076 106.22 85.8462 104.671 85.8462 102.857ZM66.2308 83.1429C66.2308 81.3289 65.5922 79.7801 64.3152 78.4967C63.0382 77.2132 61.4972 76.5714 59.6923 76.5714C57.8874 76.5714 56.3465 77.2132 55.0694 78.4967C53.7924 79.7801 53.1538 81.3289 53.1538 83.1429C53.1538 84.9568 53.7924 86.5056 55.0694 87.7891C56.3465 89.0725 57.8874 89.7143 59.6923 89.7143C61.4972 89.7143 63.0382 89.0725 64.3152 87.7891C65.5922 86.5056 66.2308 84.9568 66.2308 83.1429ZM46.6154 63.4286C46.6154 61.6146 45.9769 60.0658 44.6998 58.7824C43.4228 57.4989 41.8818 56.8571 40.0769 56.8571C38.272 56.8571 36.7311 57.4989 35.454 58.7824C34.177 60.0658 33.5385 61.6146 33.5385 63.4286C33.5385 65.2426 34.177 66.7913 35.454 68.0748C36.7311 69.3583 38.272 70 40.0769 70C41.8818 70 43.4228 69.3583 44.6998 68.0748C45.9769 66.7913 46.6154 65.2426 46.6154 63.4286ZM85.8462 83.1429C85.8462 81.3289 85.2076 79.7801 83.9306 78.4967C82.6535 77.2132 81.1126 76.5714 79.3077 76.5714C77.5028 76.5714 75.9618 77.2132 74.6848 78.4967C73.4078 79.7801 72.7692 81.3289 72.7692 83.1429C72.7692 84.9568 73.4078 86.5056 74.6848 87.7891C75.9618 89.0725 77.5028 89.7143 79.3077 89.7143C81.1126 89.7143 82.6535 89.0725 83.9306 87.7891C85.2076 86.5056 85.8462 84.9568 85.8462 83.1429ZM66.2308 63.4286C66.2308 61.6146 65.5922 60.0658 64.3152 58.7824C63.0382 57.4989 61.4972 56.8571 59.6923 56.8571C57.8874 56.8571 56.3465 57.4989 55.0694 58.7824C53.7924 60.0658 53.1538 61.6146 53.1538 63.4286C53.1538 65.2426 53.7924 66.7913 55.0694 68.0748C56.3465 69.3583 57.8874 70 59.6923 70C61.4972 70 63.0382 69.3583 64.3152 68.0748C65.5922 66.7913 66.2308 65.2426 66.2308 63.4286ZM105.462 102.857V83.1429C105.462 81.3631 104.815 79.8229 103.52 78.5223C102.226 77.2217 100.694 76.5714 98.9231 76.5714C97.1522 76.5714 95.6198 77.2217 94.3257 78.5223C93.0317 79.8229 92.3846 81.3631 92.3846 83.1429V102.857C92.3846 104.637 93.0317 106.177 94.3257 107.478C95.6198 108.778 97.1522 109.429 98.9231 109.429C100.694 109.429 102.226 108.778 103.52 107.478C104.815 106.177 105.462 104.637 105.462 102.857ZM85.8462 63.4286C85.8462 61.6146 85.2076 60.0658 83.9306 58.7824C82.6535 57.4989 81.1126 56.8571 79.3077 56.8571C77.5028 56.8571 75.9618 57.4989 74.6848 58.7824C73.4078 60.0658 72.7692 61.6146 72.7692 63.4286C72.7692 65.2426 73.4078 66.7913 74.6848 68.0748C75.9618 69.3583 77.5028 70 79.3077 70C81.1126 70 82.6535 69.3583 83.9306 68.0748C85.2076 66.7913 85.8462 65.2426 85.8462 63.4286ZM105.462 47V33.8571C105.462 32.9673 105.138 32.1972 104.491 31.5469C103.844 30.8966 103.078 30.5714 102.192 30.5714H36.8077C35.9223 30.5714 35.156 30.8966 34.509 31.5469C33.862 32.1972 33.5385 32.9673 33.5385 33.8571V47C33.5385 47.8899 33.862 48.66 34.509 49.3103C35.156 49.9606 35.9223 50.2857 36.8077 50.2857H102.192C103.078 50.2857 103.844 49.9606 104.491 49.3103C105.138 48.66 105.462 47.8899 105.462 47ZM105.462 63.4286C105.462 61.6146 104.823 60.0658 103.546 58.7824C102.269 57.4989 100.728 56.8571 98.9231 56.8571C97.1182 56.8571 95.5772 57.4989 94.3002 58.7824C93.0231 60.0658 92.3846 61.6146 92.3846 63.4286C92.3846 65.2426 93.0231 66.7913 94.3002 68.0748C95.5772 69.3583 97.1182 70 98.9231 70C100.728 70 102.269 69.3583 103.546 68.0748C104.823 66.7913 105.462 65.2426 105.462 63.4286ZM112 30.5714V109.429C112 111.208 111.353 112.749 110.059 114.049C108.765 115.35 107.232 116 105.462 116H33.5385C31.7676 116 30.2352 115.35 28.9411 114.049C27.647 112.749 27 111.208 27 109.429V30.5714C27 28.7917 27.647 27.2515 28.9411 25.9509C30.2352 24.6503 31.7676 24 33.5385 24H105.462C107.232 24 108.765 24.6503 110.059 25.9509C111.353 27.2515 112 28.7917 112 30.5714Z" fill="black"/>
<circle cx="69.5" cy="138.5" r="12" fill="white" stroke="black"/>
<path d="M73.586 145H65.666V143.344C67.118 141.928 68.12 140.902 68.672 140.266C70.16 138.562 70.904 137.128 70.904 135.964C70.904 135.448 70.766 135.046 70.49 134.758C70.214 134.47 69.818 134.326 69.302 134.326C68.378 134.326 67.772 134.89 67.484 136.018L65.756 135.244C65.924 134.32 66.344 133.594 67.016 133.066C67.7 132.526 68.54 132.256 69.536 132.256C70.664 132.256 71.54 132.58 72.164 133.228C72.788 133.864 73.1 134.638 73.1 135.55C73.1 136.198 72.962 136.888 72.686 137.62C72.41 138.328 72.092 138.946 71.732 139.474C71.36 140.026 70.922 140.566 70.418 141.094C69.986 141.574 69.59 141.982 69.23 142.318C69.05 142.486 68.756 142.738 68.348 143.074H73.586V145Z" fill="#EB3F57"/>
</svg>
