<svg width="12" height="16" viewBox="0 0 12 16" fill="none" xmlns="http://www.w3.org/2000/svg">
<path d="M6.0625 0C5.25 0 4.47135 0.164062 3.72656 0.492188C2.98177 0.820312 2.33854 1.25781 1.79688 1.80469C1.25521 2.35156 0.820312 3 0.492188 3.75C0.164062 4.5 0 5.28125 0 6.09375C0 6.55208 0.0625 7.03125 0.1875 7.53125C0.3125 8.03125 0.458333 8.49479 0.625 8.92188C0.791667 9.34896 1.03125 9.82292 1.34375 10.3438C1.65625 10.8646 1.9349 11.3047 2.17969 11.6641C2.42448 12.0234 2.75521 12.4609 3.17188 12.9766C3.58854 13.4922 3.91146 13.8854 4.14062 14.1562C4.36979 14.4271 4.69271 14.8021 5.10938 15.2812C5.23438 15.4271 5.32812 15.5312 5.39062 15.5938C5.41146 15.625 5.44792 15.6641 5.5 15.7109C5.55208 15.7578 5.64583 15.8177 5.78125 15.8906C5.91667 15.9635 6.04688 16 6.17188 16H6.21875C6.51042 16 6.77083 15.8646 7 15.5938C10.3333 11.7604 12 8.59375 12 6.09375C12 4.35417 11.4688 2.91146 10.4062 1.76562C9.30208 0.588542 7.85417 0 6.0625 0ZM6.25 14.9219C6.23958 14.9427 6.21875 14.9635 6.1875 14.9844L6.125 14.9219L5.85938 14.625C5.46354 14.1667 5.15625 13.8099 4.9375 13.5547C4.71875 13.2995 4.41146 12.9271 4.01562 12.4375C3.61979 11.9479 3.30729 11.5339 3.07812 11.1953C2.84896 10.8568 2.58333 10.4453 2.28125 9.96094C1.97917 9.47656 1.7474 9.03906 1.58594 8.64844C1.42448 8.25781 1.28646 7.83594 1.17188 7.38281C1.05729 6.92969 1 6.5 1 6.09375C1 5.1875 1.22917 4.34115 1.6875 3.55469C2.14583 2.76823 2.76302 2.14583 3.53906 1.6875C4.3151 1.22917 5.15625 1 6.0625 1C6.88542 1 7.61979 1.14323 8.26562 1.42969C8.91146 1.71615 9.42969 2.10417 9.82031 2.59375C10.2109 3.08333 10.5052 3.625 10.7031 4.21875C10.901 4.8125 11 5.4375 11 6.09375C11 8.34375 9.41667 11.2865 6.25 14.9219ZM6.01562 3.01562C5.69271 3.01562 5.3776 3.06771 5.07031 3.17188C4.76302 3.27604 4.48698 3.41927 4.24219 3.60156C3.9974 3.78385 3.78125 4 3.59375 4.25C3.40625 4.5 3.26302 4.77604 3.16406 5.07812C3.0651 5.38021 3.01562 5.69271 3.01562 6.01562C3.01562 6.84896 3.3099 7.55729 3.89844 8.14062C4.48698 8.72396 5.19531 9.01562 6.02344 9.01562C6.85156 9.01562 7.55729 8.72396 8.14062 8.14062C8.72396 7.55729 9.01562 6.84896 9.01562 6.01562C9.01562 5.60938 8.9375 5.22135 8.78125 4.85156C8.625 4.48177 8.41146 4.16406 8.14062 3.89844C7.86979 3.63281 7.54948 3.41927 7.17969 3.25781C6.8099 3.09635 6.42188 3.01562 6.01562 3.01562ZM6.01562 8.01562C5.46354 8.01562 4.98958 7.81771 4.59375 7.42188C4.19792 7.02604 4 6.55208 4 6C4 5.44792 4.19531 4.97656 4.58594 4.58594C4.97656 4.19531 5.44792 4 6 4C6.55208 4 7.02344 4.19531 7.41406 4.58594C7.80469 4.97656 8 5.44792 8 6C8 6.6875 7.72396 7.23438 7.17188 7.64062C6.82812 7.89062 6.44271 8.01562 6.01562 8.01562Z" fill="white"/>
</svg>
