<svg width="14" height="14" viewBox="0 0 14 14" fill="none" xmlns="http://www.w3.org/2000/svg">
<path d="M12.3319 10.2265C11.8977 9.78899 10.8461 9.15051 10.3359 8.89321C9.6714 8.55852 9.61671 8.53117 9.09445 8.91918C8.74609 9.17813 8.51449 9.40946 8.10679 9.3225C7.69909 9.23555 6.81316 8.74527 6.03741 7.97199C5.26167 7.19871 4.74296 6.28707 4.65573 5.88074C4.56851 5.47442 4.80366 5.24555 5.06015 4.89637C5.42163 4.40418 5.39429 4.32215 5.0853 3.6577C4.84441 3.1409 4.18734 2.0991 3.74819 1.66707C3.27843 1.20305 3.27843 1.28508 2.97573 1.41086C2.7293 1.51455 2.49289 1.64058 2.26944 1.78739C1.83194 2.07805 1.58913 2.31949 1.41933 2.68235C1.24952 3.0452 1.17323 3.89586 2.05015 5.48891C2.92706 7.08196 3.5423 7.89653 4.81569 9.16637C6.08909 10.4362 7.06827 11.119 8.49972 11.9218C10.2705 12.9136 10.9497 12.7202 11.3137 12.5507C11.6776 12.3812 11.9202 12.1405 12.2114 11.703C12.3585 11.48 12.4849 11.2438 12.5887 10.9976C12.7148 10.696 12.7968 10.696 12.3319 10.2265Z" stroke="white" stroke-miterlimit="10"/>
</svg>
