<svg width="26" height="30" viewBox="0 0 26 30" fill="none" xmlns="http://www.w3.org/2000/svg">
<path d="M23.918 10.9832H23.24V7.71223C23.2394 7.69145 23.2374 7.67073 23.234 7.65023C23.2351 7.51867 23.1886 7.39116 23.103 7.29123L17.66 1.07523L17.656 1.07123C17.5869 0.996222 17.4988 0.941285 17.401 0.91223L17.371 0.90223C17.3295 0.891871 17.2868 0.8865 17.244 0.88623H3.867C3.256 0.88623 2.76 1.38323 2.76 1.99323V10.9832H2.082C1.208 10.9832 0.5 11.6912 0.5 12.5652V20.7932C0.5 21.6662 1.209 22.3752 2.082 22.3752H2.76V28.0082C2.76 28.6182 3.256 29.1152 3.867 29.1152H22.133C22.743 29.1152 23.24 28.6182 23.24 28.0082V22.3752H23.918C24.792 22.3752 25.5 21.6662 25.5 20.7932V12.5652C25.5 11.6912 24.791 10.9832 23.918 10.9832ZM3.867 1.99323H16.69V7.65723C16.69 7.96323 16.938 8.21023 17.244 8.21023H22.134V10.9832H3.867V1.99323ZM17.457 16.7232C17.457 18.3052 16.881 19.3972 16.082 20.0712C15.212 20.7942 13.888 21.1382 12.269 21.1382C11.3 21.1382 10.614 21.0762 10.147 21.0162V12.8972C10.834 12.7872 11.729 12.7262 12.674 12.7262C14.243 12.7262 15.261 13.0082 16.058 13.6092C16.917 14.2462 17.457 15.2642 17.457 16.7232ZM3.021 21.0532V12.8972C3.597 12.7992 4.407 12.7262 5.547 12.7262C6.7 12.7262 7.522 12.9472 8.073 13.3882C8.6 13.8052 8.955 14.4922 8.955 15.3012C8.955 16.1112 8.686 16.7972 8.195 17.2632C7.557 17.8642 6.613 18.1342 5.509 18.1342C5.264 18.1342 5.043 18.1222 4.872 18.0972V21.0532H3.021ZM22.133 27.7082H3.867V22.3752H22.133V27.7082ZM23.737 14.3202H20.56V16.2092H23.528V17.7302H20.56V21.0532H18.685V12.7872H23.737V14.3202Z" fill="#1CB519"/>
</svg>
