<svg width="160" height="160" viewBox="0 0 160 160" fill="none" xmlns="http://www.w3.org/2000/svg">
<path d="M150 0H45C42.2425 0 40 2.2425 40 5V40H45V5H65V15H52.5C51.12 15 50 16.12 50 17.5V40H55V20H65V25C65 27.7575 67.2425 30 70 30H125C127.757 30 130 27.7575 130 25V20H140V80H145V17.5C145 16.12 143.88 15 142.5 15H130V5H150V155H45V140H40V157.5C40 158.88 41.12 160 42.5 160H150C152.757 160 155 157.758 155 155V5C155 2.2425 152.757 0 150 0ZM125 25H70V5H125V25Z" fill="black"/>
<path d="M145 85H140V120H115C113.62 120 112.5 121.12 112.5 122.5V145H55V140H50V147.5C50 148.88 51.12 150 52.5 150H115C115.115 150 115.23 149.993 115.342 149.978C115.368 149.975 115.393 149.97 115.417 149.965C115.43 149.963 115.442 149.96 115.457 149.958C115.475 149.955 115.49 149.95 115.505 149.948C115.527 149.942 115.55 149.94 115.57 149.932C115.577 149.93 115.582 149.93 115.59 149.928C115.658 149.91 115.725 149.893 115.793 149.87C115.795 149.87 115.798 149.867 115.8 149.867C115.87 149.845 115.94 149.818 116.007 149.788C116.01 149.788 116.012 149.785 116.012 149.785C116.08 149.755 116.147 149.723 116.213 149.685C116.215 149.685 116.215 149.683 116.217 149.683C116.247 149.665 116.28 149.648 116.31 149.628C116.322 149.62 116.335 149.612 116.348 149.603C116.368 149.59 116.387 149.577 116.408 149.562C116.417 149.555 116.428 149.548 116.438 149.54C116.46 149.525 116.48 149.51 116.5 149.495C116.52 149.48 116.538 149.465 116.558 149.45C116.57 149.44 116.58 149.433 116.592 149.423C116.623 149.397 116.653 149.372 116.683 149.345L144.183 124.345C144.225 124.307 144.265 124.268 144.303 124.228C144.312 124.215 144.325 124.205 144.335 124.192C144.368 124.157 144.4 124.12 144.43 124.082C144.435 124.075 144.442 124.07 144.447 124.062C144.482 124.02 144.515 123.975 144.545 123.933C144.555 123.92 144.562 123.907 144.572 123.892C144.597 123.857 144.62 123.82 144.642 123.783C144.65 123.77 144.658 123.76 144.663 123.748C144.69 123.7 144.715 123.655 144.738 123.605C144.745 123.593 144.75 123.577 144.757 123.565C144.775 123.527 144.792 123.488 144.81 123.448C144.815 123.433 144.823 123.42 144.827 123.405C144.847 123.355 144.865 123.302 144.882 123.25C144.885 123.242 144.888 123.235 144.89 123.228C144.905 123.18 144.918 123.133 144.93 123.085C144.933 123.073 144.935 123.06 144.94 123.048C144.965 122.938 144.983 122.827 144.993 122.715C144.993 122.702 144.995 122.688 144.995 122.675C144.998 122.63 145 122.583 145.003 122.535C145.003 122.525 145.003 122.512 145.003 122.502C145.003 122.497 145.003 122.492 145.003 122.487V85H145ZM117.5 125H136.032L123.893 136.038L117.5 141.847V125Z" fill="black"/>
<path d="M75 12.5H80V17.5H75V12.5Z" fill="black"/>
<path d="M115 12.5H120V17.5H115V12.5Z" fill="black"/>
<path d="M127.5 40H70C68.62 40 67.5 41.12 67.5 42.5V52.5H72.5V45H125V80H87.5V85H127.5C128.88 85 130 83.88 130 82.5V42.5C130 41.12 128.88 40 127.5 40Z" fill="black"/>
<path d="M85 95H112.5V100H85V95Z" fill="black"/>
<path d="M117.5 95H132.5V100H117.5V95Z" fill="black"/>
<path d="M77.5 110H105V115H77.5V110Z" fill="black"/>
<path d="M110 110H132.5V115H110V110Z" fill="black"/>
<path d="M65 125H107.5V130H65V125Z" fill="black"/>
<path d="M85 12.5H110V17.5H85V12.5Z" fill="black"/>
<path d="M45 135C45.5275 135 46.055 134.835 46.5 134.5L57.5325 126.225C70.275 116.67 78.815 102.77 81.5825 87.0874L84.9625 67.9349C85.15 66.8699 84.6325 65.8024 83.6775 65.2949L46.1775 45.2949C45.4425 44.9024 44.56 44.9024 43.825 45.2949L6.32501 65.2949C5.37001 65.8049 4.85251 66.8699 5.04001 67.9349L8.39251 86.9524C11.1325 102.495 19.565 116.312 32.1325 125.862L43.49 134.492C43.935 134.83 44.4675 135 45 135ZM13.315 86.0824L10.2775 68.8524L45 50.3324L79.7225 68.8524L76.6575 86.2174C74.1125 100.645 66.255 113.432 54.5325 122.225L45.01 129.367L35.155 121.88C23.5925 113.095 15.8375 100.382 13.315 86.0824Z" fill="black"/>
<path d="M54.5876 116.86C64.0676 109.75 70.4201 99.4102 72.4801 87.7427L74.9601 73.6977C75.1476 72.6327 74.6301 71.5652 73.6751 71.0577L61.1701 64.3877L58.8176 68.8002L69.7226 74.6177L67.5576 86.8752C65.7201 97.2902 60.0501 106.518 51.5901 112.865L45.0101 117.8L38.1851 112.613C29.8401 106.273 24.2426 97.0977 22.4226 86.7777L20.2751 74.6152L31.1776 68.8002L28.8251 64.3877L16.3226 71.0552C15.3676 71.5652 14.8501 72.6302 15.0376 73.6952L17.4951 87.6402C19.5351 99.2027 25.8076 109.485 35.1576 116.59L43.4876 122.918C43.9351 123.258 44.4676 123.428 45.0001 123.428C45.5276 123.428 46.0551 123.263 46.5001 122.928L54.5876 116.86Z" fill="black"/>
<path d="M44.9975 61.4301L53.825 66.1376L56.1775 61.7251L46.1725 56.3901C45.4375 55.9976 44.555 55.9976 43.82 56.3901L33.8225 61.7226L36.175 66.1351L44.9975 61.4301Z" fill="black"/>
<path d="M42.405 100H42.5C43.22 100 43.905 99.69 44.38 99.1475L61.88 79.1475L58.1175 75.855L42.6475 93.535L37 86L33 89L40.5 99C40.9525 99.6025 41.6525 99.97 42.405 100Z" fill="black"/>
<path d="M42.5 70H47.5V75H42.5V70Z" fill="black"/>
<path d="M42.5 105H47.5V110H42.5V105Z" fill="black"/>
</svg>
