<svg width="160" height="160" viewBox="0 0 160 160" fill="none" xmlns="http://www.w3.org/2000/svg">
<path d="M111.25 134.062C109.525 134.062 108.125 135.462 108.125 137.188C108.125 138.912 109.525 140.312 111.25 140.312C112.975 140.312 114.375 138.912 114.375 137.188C114.375 135.462 112.975 134.062 111.25 134.062Z" fill="black"/>
<path d="M48.75 134.062C47.025 134.062 45.625 135.462 45.625 137.188C45.625 138.912 47.025 140.312 48.75 140.312C50.475 140.312 51.875 138.912 51.875 137.188C51.875 135.462 50.475 134.062 48.75 134.062Z" fill="black"/>
<path d="M139.889 117.878C136.371 112.433 131.537 108.107 125.874 105.312C125.397 104.869 124.783 104.572 124.1 104.496C120.004 102.757 115.687 101.875 111.25 101.875H101.875V93.6303C107.3 88.9753 111.201 82.8097 113.092 75.9375H114.375C121.268 75.9375 126.875 70.33 126.875 63.4375C126.875 60.1712 125.614 57.195 123.556 54.9656C123.752 54.7987 123.944 54.625 124.128 54.4409C125.9 52.6697 126.875 50.3156 126.875 47.8125C126.875 43.6991 124.211 40.1981 120.518 38.9387C119.414 24.5687 109.328 12.2887 95.4425 8.44C94.6197 4.1425 91.0731 0 86.25 0H73.75C68.9269 0 65.3803 4.1425 64.5575 8.44C50.6728 12.2884 40.5884 24.5662 39.4825 38.9344C38.1381 39.3903 36.9053 40.1506 35.8716 41.1841C34.1003 42.9553 33.125 45.3094 33.125 47.8125C33.125 50.6759 34.4169 53.2422 36.4469 54.9631C34.3869 57.1925 33.125 60.17 33.125 63.4375C33.125 70.33 38.7325 75.9375 45.625 75.9375H46.8994C48.4781 81.6741 51.4716 86.9406 55.6475 91.2909C56.4322 92.1091 57.2641 92.8884 58.125 93.6278V101.875H48.75C44.3131 101.875 39.9956 102.757 35.9 104.496C35.2175 104.572 34.6031 104.869 34.1259 105.312C28.4625 108.107 23.6288 112.433 20.1109 117.878C16.3584 123.686 14.375 130.363 14.375 137.188V156.875C14.375 158.601 15.7741 160 17.5 160H142.5C144.226 160 145.625 158.601 145.625 156.875V137.188C145.625 130.363 143.642 123.686 139.889 117.878ZM33.125 153.75H20.625V137.188C20.625 127.682 25.4944 118.572 33.125 113.163V153.75ZM114.375 69.6875H114.232C114.326 68.6478 114.375 67.6044 114.375 66.5625V57.1875C117.821 57.1875 120.625 59.9912 120.625 63.4375C120.625 66.8838 117.821 69.6875 114.375 69.6875ZM64.375 15.0434V29.0625C64.375 30.7884 65.7741 32.1875 67.5 32.1875C69.2259 32.1875 70.625 30.7884 70.625 29.0625V10.9572C70.625 10.9491 70.625 10.9409 70.625 10.9328V10.3125C70.625 8.37625 72.2606 6.25 73.75 6.25H86.25C87.7394 6.25 89.375 8.37625 89.375 10.3125V10.9328C89.375 10.9409 89.375 10.9491 89.375 10.9572V29.0625C89.375 30.7884 90.7741 32.1875 92.5 32.1875C94.2259 32.1875 95.625 30.7884 95.625 29.0625V15.0434C105.716 18.6144 113 27.7456 114.2 38.4375H45.7997C47 27.7456 54.2844 18.6144 64.375 15.0434ZM45.625 69.6875C42.1787 69.6875 39.375 66.8838 39.375 63.4375C39.375 59.9912 42.1787 57.1875 45.625 57.1875V66.5625C45.625 67.6044 45.6744 68.6481 45.7675 69.6875H45.625ZM45.625 50.9375H42.5C40.7769 50.9375 39.375 49.5356 39.375 47.8125C39.375 46.9787 39.7003 46.1941 40.2909 45.6038C40.8819 45.0128 41.6663 44.6875 42.5 44.6875H117.5C119.223 44.6875 120.625 46.0894 120.625 47.8125C120.625 48.6463 120.3 49.4309 119.709 50.0212C119.118 50.6122 118.334 50.9375 117.5 50.9375H114.375H111.25H48.75H45.625ZM52.4428 72.2447C52.4366 72.2106 52.4306 72.1769 52.4231 72.1434C52.0603 70.3094 51.875 68.4322 51.875 66.5625V57.1875H108.125V66.5625C108.125 68.4306 107.94 70.3066 107.577 72.1422C107.569 72.1759 107.563 72.21 107.557 72.2441C106.161 79.215 102.296 85.455 96.6675 89.8194C91.7781 93.6175 86.0147 95.625 80 95.625C73.9853 95.625 68.2219 93.6175 63.3278 89.8159C62.2075 88.9491 61.1413 87.99 60.1575 86.9641C56.2153 82.8572 53.5491 77.7694 52.4428 72.2447ZM76.875 153.75H51.875V146.562C51.875 144.837 50.4759 143.438 48.75 143.438C47.0241 143.438 45.625 144.837 45.625 146.562V153.75H39.375V109.836C41.4031 109.071 43.4925 108.561 45.625 108.31V127.812C45.625 129.538 47.0241 130.938 48.75 130.938C50.4759 130.938 51.875 129.538 51.875 127.812V108.125H59.9109L76.875 125.938V153.75ZM64.375 103.75V97.9294C69.1972 100.522 74.5084 101.875 80 101.875C85.4919 101.875 90.8034 100.521 95.625 97.9297V103.75L80 120.156L64.375 103.75ZM120.625 153.75H114.375V146.562C114.375 144.837 112.976 143.438 111.25 143.438C109.524 143.438 108.125 144.837 108.125 146.562V153.75H83.125V125.938L100.089 108.125H108.125V127.812C108.125 129.538 109.524 130.938 111.25 130.938C112.976 130.938 114.375 129.538 114.375 127.812V108.31C116.507 108.561 118.597 109.071 120.625 109.836V153.75ZM139.375 153.75H126.875V113.163C134.506 118.571 139.375 127.682 139.375 137.188V153.75Z" fill="black"/>
</svg>
