<svg width="160" height="160" viewBox="0 0 160 160" fill="none" xmlns="http://www.w3.org/2000/svg">
<path d="M72.0687 58.1221H66.9209V63.2698H72.0687V58.1221Z" fill="black"/>
<path d="M87.5118 58.1221H82.364V63.2698H87.5118V58.1221Z" fill="black"/>
<path d="M56.6253 58.1221H51.4775V63.2698H56.6253V58.1221Z" fill="black"/>
<path d="M144.081 127.776L160 122.469L144.078 117.162L151.583 102.151L136.575 109.656L131.268 93.742L125.96 109.659L120.972 107.165V93.1732C120.972 85.0089 115.459 77.8457 107.568 75.7558L102.168 74.3273C102.657 73.3106 102.955 72.1909 102.955 70.9915V19.5139C102.955 12.4177 97.1819 6.64453 90.0857 6.64453H48.9037C41.8075 6.64453 36.0343 12.4177 36.0343 19.5139V70.9915C36.0343 72.1909 36.3329 73.3106 36.8219 74.3247L31.4219 75.7532C23.5304 77.8457 18.0171 85.0089 18.0171 93.1732V127.617C18.0171 129.449 18.4135 131.184 19.1085 132.765H0V153.356H159.58V132.765H146.575L144.081 127.776ZM118.455 117.162L105.529 121.47V110.248C107.359 109.347 109.65 109.468 111.292 110.701L117.585 115.422L118.455 117.162ZM118.455 127.776L115.961 132.765H105.529V123.468L118.455 127.776ZM105.526 80.5406L106.247 80.7311C111.889 82.2239 115.825 87.3408 115.825 93.1732V104.591L110.95 102.153L112.659 105.572C110.453 104.521 107.907 104.261 105.526 104.799V80.5406ZM41.1821 19.5139C41.1821 15.2567 44.6465 11.7923 48.9037 11.7923H90.0857C94.3429 11.7923 97.8074 15.2567 97.8074 19.5139V24.6617H90.0857V16.94H48.9037V24.6617H41.1821V19.5139ZM97.8074 29.8094V34.9572H90.0857V29.8094H97.8074ZM84.938 22.0878V42.6788H54.0514V22.0878H84.938ZM41.1821 29.8094H48.9037V34.9572H41.1821V29.8094ZM41.1821 40.105H48.9037V47.8266H90.0857V40.105H97.8074V70.9915C97.8074 72.4097 96.6543 73.5654 95.2335 73.5654H43.7559C42.3352 73.5654 41.1821 72.4097 41.1821 70.9915V40.105ZM75.5227 78.7131L69.4947 87.1529L63.4667 78.7131H75.5227ZM38.6082 79.1764L41.6273 78.376C42.3094 78.5742 43.0121 78.7131 43.7559 78.7131V107.026H95.2335V89.0087H90.0857V101.878H48.9037V78.7131H57.1401L69.4947 96.0122L81.8468 78.7131H90.0857V83.8609H95.2335V78.7131C95.9774 78.7131 96.68 78.5742 97.3621 78.3785L100.381 79.1764V107.363L91.0844 113.561L88.6135 108.616L66.3237 120.999C64.9441 120.317 63.4152 119.895 61.7731 119.895H38.6082V79.1764ZM70.4059 124.621L86.4102 115.728L89.2544 121.414L71.9837 131.009C72.0068 130.736 72.0686 130.471 72.0686 130.191C72.0686 128.137 71.4483 126.23 70.4059 124.621ZM96.0623 123.522L93.4035 118.202L100.381 113.551V132.765H79.4273L96.0623 123.522ZM23.1649 93.1732C23.1649 87.3408 27.1004 82.2239 32.7397 80.7311L33.4604 80.5406V112.174H23.1649V93.1732ZM23.1649 117.321H33.4604V119.895C33.4604 122.734 35.7692 125.043 38.6082 125.043H61.7731C64.6121 125.043 66.9208 127.352 66.9208 130.191C66.9208 133.03 64.6121 135.338 61.7731 135.338H30.8865C26.6293 135.338 23.1649 131.874 23.1649 127.617V117.321ZM5.14776 148.208V137.912H23.1649V137.845C25.3218 139.48 27.9781 140.486 30.8865 140.486H61.7731C64.3598 140.486 66.6995 139.495 68.5115 137.912H113.387L110.95 142.785L125.958 135.279L130.272 148.208H5.14776ZM130.04 131.249L129.515 130.036L127.005 129.002L122.46 131.274L124.73 126.734L123.652 124.083L118.818 122.469L122.491 121.244L123.683 120.788L123.93 120.181L129.723 124.528L132.81 120.41L126.529 115.697L127.008 115.937L129.659 114.84L131.268 110.014L132.496 113.69L133.021 114.902L135.53 115.937L140.076 113.664L137.805 118.204L138.884 120.855L143.718 122.469L140.045 123.694L138.853 124.15L137.803 126.734L140.073 131.274L135.528 129.002L132.876 130.101L131.268 134.924L130.04 131.249ZM154.433 137.912V148.208H132.264L136.575 135.279L151.583 142.785L149.149 137.912H154.433Z" fill="black"/>
</svg>
