<svg width="160" height="160" viewBox="0 0 160 160" fill="none" xmlns="http://www.w3.org/2000/svg">
<path d="M155.312 94.375H153.201L147.464 48.4812C147.171 46.1353 145.177 44.375 142.812 44.375H127.188C124.823 44.375 122.829 46.1353 122.536 48.4812L116.799 94.375H109.451L103.714 48.4812C103.421 46.1353 101.427 44.375 99.0625 44.375H83.4375C81.0734 44.375 79.0794 46.1353 78.7862 48.4812L73.0494 94.375H66.25V61.5625C66.25 58.9738 64.1513 56.875 61.5625 56.875H4.6875C2.09875 56.875 0 58.9738 0 61.5625V155.312C0 157.901 2.09875 160 4.6875 160H155.312C157.901 160 160 157.901 160 155.312V99.0625C160 96.4738 157.901 94.375 155.312 94.375ZM131.326 53.75H138.675L143.753 94.375H126.247L131.326 53.75ZM87.5756 53.75H94.9247L100.003 94.375H82.4975L87.5756 53.75ZM9.375 66.25H56.875V99.0625V150.625H47.1875V130.312C47.1875 127.724 45.0887 125.625 42.5 125.625H23.75C21.1612 125.625 19.0625 127.724 19.0625 130.312V150.625H9.375V66.25ZM28.4375 150.625V135H37.8125V150.625H28.4375ZM91.25 150.625V141.25H125.625V150.625H91.25ZM150.625 150.625H135V136.562C135 133.974 132.901 131.875 130.312 131.875H86.5625C83.9737 131.875 81.875 133.974 81.875 136.562V150.625H66.25V103.75H150.625V150.625Z" fill="black"/>
<path d="M111.562 113.125H105.312C102.724 113.125 100.625 115.224 100.625 117.812C100.625 120.401 102.724 122.5 105.312 122.5H111.562C114.151 122.5 116.25 120.401 116.25 117.812C116.25 115.224 114.151 113.125 111.562 113.125Z" fill="black"/>
<path d="M136.562 113.125H130.312C127.724 113.125 125.625 115.224 125.625 117.812C125.625 120.401 127.724 122.5 130.312 122.5H136.562C139.151 122.5 141.25 120.401 141.25 117.812C141.25 115.224 139.151 113.125 136.562 113.125Z" fill="black"/>
<path d="M61.5625 18.75H125.625C128.21 18.75 130.312 20.8528 130.312 23.4375V32.8125C130.312 35.4012 132.411 37.5 135 37.5C137.589 37.5 139.688 35.4012 139.688 32.8125V23.4375C139.688 15.6834 133.379 9.375 125.625 9.375H61.5625C58.9778 9.375 56.875 7.27219 56.875 4.6875C56.875 2.09875 54.7762 0 52.1875 0C49.5987 0 47.5 2.09875 47.5 4.6875C47.5 12.4416 53.8084 18.75 61.5625 18.75Z" fill="black"/>
<path d="M42.8125 37.5H91.25C93.8388 37.5 95.9375 35.4013 95.9375 32.8125C95.9375 30.2238 93.8388 28.125 91.25 28.125H42.8125C40.2278 28.125 38.125 26.0222 38.125 23.4375C38.125 20.8487 36.0262 18.75 33.4375 18.75C30.8487 18.75 28.75 20.8487 28.75 23.4375C28.75 31.1916 35.0584 37.5 42.8125 37.5Z" fill="black"/>
<path d="M42.5 116.25C45.0887 116.25 47.1875 114.151 47.1875 111.562V105.312C47.1875 102.724 45.0887 100.625 42.5 100.625C39.9112 100.625 37.8125 102.724 37.8125 105.312V111.562C37.8125 114.151 39.9112 116.25 42.5 116.25Z" fill="black"/>
<path d="M23.75 116.25C26.3387 116.25 28.4375 114.151 28.4375 111.562V105.312C28.4375 102.724 26.3387 100.625 23.75 100.625C21.1612 100.625 19.0625 102.724 19.0625 105.312V111.562C19.0625 114.151 21.1612 116.25 23.75 116.25Z" fill="black"/>
<path d="M42.5 91.25C45.0887 91.25 47.1875 89.1512 47.1875 86.5625V80.3125C47.1875 77.7237 45.0887 75.625 42.5 75.625C39.9112 75.625 37.8125 77.7237 37.8125 80.3125V86.5625C37.8125 89.1512 39.9112 91.25 42.5 91.25Z" fill="black"/>
<path d="M23.75 91.25C26.3387 91.25 28.4375 89.1512 28.4375 86.5625V80.3125C28.4375 77.7237 26.3387 75.625 23.75 75.625C21.1612 75.625 19.0625 77.7237 19.0625 80.3125V86.5625C19.0625 89.1512 21.1612 91.25 23.75 91.25Z" fill="black"/>
<path d="M86.5625 113.125H80.3125C77.7237 113.125 75.625 115.224 75.625 117.812C75.625 120.401 77.7237 122.5 80.3125 122.5H86.5625C89.1512 122.5 91.25 120.401 91.25 117.812C91.25 115.224 89.1512 113.125 86.5625 113.125Z" fill="black"/>
</svg>
