<svg width="160" height="160" viewBox="0 0 160 160" fill="none" xmlns="http://www.w3.org/2000/svg">
<path d="M5 5H155V15H5V5Z" fill="white"/>
<path d="M40 15L55 30H105L120 15" fill="white"/>
<path d="M62.5 40V87.5H97.5V40" fill="white"/>
<path d="M62.5 87.5L72.5 102.5H87.5L97.5 87.5" fill="white"/>
<path d="M72.5 102.5L75 112.5H85L87.5 102.5" fill="white"/>
<path d="M77.5 112.5H82.4975V137.5H77.5V112.5Z" fill="#E7E4DD"/>
<path d="M75 155H10C7.2375 155 5 152.762 5 150C5 147.237 7.2375 145 10 145H75V155Z" fill="black"/>
<path d="M85 155H150C152.762 155 155 152.762 155 150C155 147.237 152.762 145 150 145H85V155Z" fill="black"/>
<path d="M85.7031 135.753L95.7034 125.753L99.2407 129.29L89.2404 139.291L85.7031 135.753Z" fill="black"/>
<path d="M60.7007 129.287L64.2344 125.753L74.2347 135.753L70.7009 139.287L60.7007 129.287Z" fill="black"/>
<path d="M85 40V70C85 72.7625 82.7625 75 80 75C77.2375 75 75 72.7625 75 70V40" fill="white"/>
<path d="M75 57.5H84.9975V62.5H75V57.5Z" fill="#E39854"/>
<path d="M21.4625 15H28.535L18.535 5H11.46L21.4625 15Z" fill="black"/>
<path d="M36.4624 15H43.5349L33.5349 5H26.4624L36.4624 15Z" fill="black"/>
<path d="M51.46 15H58.535L48.535 5H41.46L51.46 15Z" fill="black"/>
<path d="M66.4624 15H73.5374L63.5374 5H56.4624L66.4624 15Z" fill="black"/>
<path d="M81.46 15H88.535L78.535 5H71.46L81.46 15Z" fill="black"/>
<path d="M96.4624 15H103.537L93.5374 5H86.4624L96.4624 15Z" fill="black"/>
<path d="M118.535 15L108.535 5H101.462L111.46 15H118.535Z" fill="black"/>
<path d="M126.462 15H133.537L123.537 5H116.462L126.462 15Z" fill="black"/>
<path d="M141.462 15H148.535L138.535 5H131.462L141.462 15Z" fill="black"/>
<path d="M62.5 30V40H97.5V30" fill="white"/>
<path d="M47.5 132.5H57.4975V137.5H47.5V132.5Z" fill="black"/>
<path d="M102.5 132.5H112.497V137.5H102.5V132.5Z" fill="black"/>
<path d="M77.5 87.5H82.4975V95H77.5V87.5Z" fill="white"/>
<path d="M155 2.49756H4.99756C3.61756 2.49756 2.49756 3.61756 2.49756 4.99756V14.9976C2.49756 16.3776 3.61756 17.4976 4.99756 17.4976H38.9626L53.2301 31.7651C53.7001 32.2351 54.3351 32.4951 55.0001 32.4951H60.0001V39.9951V87.495C60.0001 88.0101 60.1926 88.46 60.4576 88.855L60.4176 88.8826L70.1801 103.525L72.5751 113.1C72.8526 114.213 73.855 114.993 75.0025 114.993H77.5025V137.493H82.5V114.993H85C86.1476 114.993 87.1476 114.213 87.4276 113.1L89.8225 103.525L99.585 88.8826L99.5451 88.855C99.8101 88.4576 100.003 88.0076 100.003 87.495V40.0001V32.5001H105.003C105.668 32.5001 106.305 32.2376 106.773 31.7701L121.035 17.5001H155C156.38 17.5001 157.5 16.3801 157.5 15.0001V5.00006C157.5 3.61756 156.38 2.49756 155 2.49756ZM41.0376 12.5001L36.0376 7.50006H43.9626L48.9626 12.5001H41.0376ZM33.9626 12.5001H26.0376L21.0376 7.50006H28.9626L33.9626 12.5001ZM56.0376 12.5001L51.0376 7.50006H58.9626L63.9625 12.5001H56.0376ZM71.0376 12.5001L66.0376 7.50006H73.9625L78.9625 12.5001H71.0376ZM86.0376 12.5001L81.0376 7.50006H88.9625L93.9625 12.5001H86.0376ZM101.038 12.5001L96.0376 7.50006H103.963L108.963 12.5001H101.038ZM116.038 12.5001L111.038 7.50006H118.963L123.963 12.5001H116.038ZM126.035 7.49756H133.96L138.96 12.4976H131.035L126.035 7.49756ZM7.49756 7.49756H13.9601L18.9601 12.4976H7.49756V7.49756ZM77.5001 62.4976H82.4976V70.0001C82.4976 71.3775 81.3775 72.4976 79.995 72.4976C78.6175 72.4976 77.5001 71.3775 77.5001 70.0001V62.4976ZM82.4976 57.5001H77.5001V42.5001H82.4976V57.5001ZM80.0001 77.4976C84.1326 77.4976 87.4976 74.135 87.4976 70.0001V42.4976H94.9976V84.9976H65V42.4976H72.5001V70.0001C72.5001 74.135 75.8651 77.4976 80.0001 77.4976ZM73.8375 99.9976L67.1701 89.9976H77.5001V94.9976H82.4976V89.9976H92.8276L86.16 99.9976H73.8375ZM76.9501 109.998L75.7001 104.998H84.295L83.045 109.998H76.9501ZM94.9976 37.4976H65V32.4976H94.9976V37.4976ZM103.963 27.4976H56.035L46.0351 17.4976H113.96L103.963 27.4976ZM152.5 12.5001H146.038L141.038 7.50006H152.5V12.5001Z" fill="black"/>
<path d="M2.5 150C2.5 154.135 5.8625 157.498 9.995 157.498H74.9975C76.38 157.498 77.4975 156.38 77.4975 154.998V144.998C77.4975 143.615 76.38 142.498 74.9975 142.498H9.995C5.8625 142.5 2.5 145.863 2.5 150ZM72.4975 152.498H9.995C8.6175 152.498 7.5 151.378 7.5 150C7.5 148.62 8.6175 147.5 9.995 147.5H72.4975V152.498Z" fill="black"/>
<path d="M83.23 143.23C82.76 143.697 82.5 144.335 82.5 145V155C82.5 156.382 83.6175 157.5 85 157.5H149.997C154.13 157.5 157.495 154.137 157.497 150C157.497 145.865 154.132 142.5 150 142.5H85C84.335 142.5 83.6975 142.76 83.23 143.23ZM87.5 147.5H149.997C151.377 147.5 152.497 148.62 152.497 149.998C152.497 151.375 151.377 152.498 149.997 152.498H87.5V147.5Z" fill="black"/>
<path d="M85.708 135.726L95.7083 125.726L99.2456 129.263L89.2453 139.263L85.708 135.726Z" fill="black"/>
<path d="M60.811 129.269L64.3443 125.731L74.3572 135.73L70.8239 139.268L60.811 129.269Z" fill="black"/>
<path d="M47.5 132.5H57.4975V137.5H47.5V132.5Z" fill="black"/>
<path d="M102.5 132.5H112.497V137.5H102.5V132.5Z" fill="black"/>
</svg>
